<svg width="44" height="44" viewBox="0 0 44 44" fill="none" xmlns="http://www.w3.org/2000/svg">
<path fill-rule="evenodd" clip-rule="evenodd" d="M21.9998 3.6665C11.8746 3.6665 3.6665 11.8746 3.6665 21.9998C3.6665 32.1251 11.8746 40.3332 21.9998 40.3332C32.1251 40.3332 40.3332 32.1251 40.3332 21.9998C40.3332 11.8746 32.1251 3.6665 21.9998 3.6665ZM30.5069 15.0915C31.2847 15.7397 31.3898 16.8957 30.7416 17.6736L21.5749 28.6736C21.2549 29.0576 20.7919 29.2943 20.2931 29.3288C19.7944 29.3634 19.3032 29.1927 18.9333 28.8564L13.4333 23.8564C12.6841 23.1753 12.6289 22.0159 13.31 21.2667C13.9911 20.5174 15.1505 20.4622 15.8997 21.1433L19.9835 24.8558L27.9248 15.3262C28.573 14.5484 29.729 14.4433 30.5069 15.0915Z" fill="#5EAF74"/>
</svg>
